<?xml version="1.0" encoding="UTF-8"?>
<svg id="Camada_2" data-name="Camada 2" xmlns="http://www.w3.org/2000/svg" viewBox="0 0 48.76 56.69">
  <defs>
    <style>
      .cls-1 {
        fill: #fff;
      }
    </style>
  </defs>
  <g id="Artwork">
    <g>
      <polygon class="cls-1" points="33.03 5.03 33.04 10.69 43.95 17.06 43.95 39.66 24.24 51.01 23.25 50.43 23.25 26 14.61 25.99 14.62 30.81 18.19 30.81 18.19 39.38 12.25 35.92 12.23 21.36 23.19 14.96 23.19 9.23 7.25 18.55 7.25 38.42 18.14 44.76 18.12 53.08 24.39 56.69 48.76 42.57 48.76 14.21 33.03 5.03"/>
      <polygon class="cls-1" points="4.93 17.05 24.58 5.76 25.62 6.36 25.62 47.65 30.57 44.73 30.57 30.81 36.97 30.81 36.97 41 41.58 38.31 41.58 18.42 36.97 15.73 36.97 25.99 30.67 25.99 30.67 3.65 24.41 0 0 14.24 0 14.24 0 42.46 15.79 51.68 15.79 46.08 4.93 39.74 4.93 17.05"/>
    </g>
  </g>
</svg>